Monda-Bold.ufo
<glyph name="asterisk" format="1">
  <advance width="990"/>
  <unicode hex="002A"/>
  <outline>
    <contour>
      <point x="406" y="599" type="line"/>
      <point x="584" y="599" type="line"/>
      <point x="555" y="912" type="line"/>
      <point x="802" y="722" type="line"/>
      <point x="897" y="875" type="line"/>
      <point x="617" y="1017" type="line"/>
      <point x="908" y="1134" type="line"/>
      <point x="827" y="1295" type="line"/>
      <point x="554" y="1121" type="line"/>
      <point x="584" y="1446" type="line"/>
      <point x="406" y="1446" type="line"/>
      <point x="434" y="1133" type="line"/>
      <point x="187" y="1323" type="line"/>
      <point x="92" y="1170" type="line"/>
      <point x="372" y="1028" type="line"/>
      <point x="82" y="911" type="line"/>
      <point x="162" y="750" type="line"/>
      <point x="435" y="924" type="line"/>
    </contour>
  </outline>
</glyph>
<glyph name="eight" format="1">
  <advance width="1536"/>
  <unicode hex="0038"/>
  <outline>
    <contour>
      <point x="765" y="-28" type="curve" smooth="yes"/>
      <point x="1141" y="-28"/>
      <point x="1342" y="118"/>
      <point x="1342" y="369" type="curve" smooth="yes"/>
      <point x="1342" y="529"/>
      <point x="1263" y="695"/>
      <point x="992" y="788" type="curve"/>
      <point x="1223" y="850"/>
      <point x="1302" y="1018"/>
      <point x="1302" y="1147" type="curve" smooth="yes"/>
      <point x="1302" y="1324"/>
      <point x="1191" y="1519"/>
      <point x="765" y="1519" type="curve" smooth="yes"/>
      <point x="347" y="1519"/>
      <point x="221" y="1328"/>
      <point x="221" y="1156" type="curve" smooth="yes"/>
      <point x="221" y="1009"/>
      <point x="297" y="859"/>
      <point x="516" y="788" type="curve"/>
      <point x="303" y="695"/>
      <point x="194" y="558"/>
      <point x="194" y="365" type="curve" smooth="yes"/>
      <point x="194" y="128"/>
      <point x="402" y="-28"/>
    </contour>
    <contour>
      <point x="765" y="208" type="curve" smooth="yes"/>
      <point x="552" y="208"/>
      <point x="509" y="310"/>
      <point x="509" y="390" type="curve" smooth="yes"/>
      <point x="509" y="481"/>
      <point x="571" y="575"/>
      <point x="765" y="665" type="curve"/>
      <point x="960" y="575"/>
      <point x="1020" y="481"/>
      <point x="1020" y="390" type="curve" smooth="yes"/>
      <point x="1020" y="311"/>
      <point x="979" y="208"/>
    </contour>
    <contour>
      <point x="765" y="889" type="curve"/>
      <point x="586" y="975"/>
      <point x="544" y="1035"/>
      <point x="544" y="1134" type="curve" smooth="yes"/>
      <point x="544" y="1221"/>
      <point x="589" y="1292"/>
      <point x="765" y="1292" type="curve" smooth="yes"/>
      <point x="944" y="1292"/>
      <point x="984" y="1216"/>
      <point x="984" y="1135" type="curve" smooth="yes"/>
      <point x="984" y="1042"/>
      <point x="933" y="975"/>
    </contour>
  </outline>
</glyph>
<glyph name="equal" format="1">
  <advance width="630"/>
  <unicode hex="003D"/>
  <outline>
    <contour>
      <point x="58" y="213" type="line"/>
      <point x="564" y="213" type="line"/>
      <point x="564" y="397" type="line"/>
      <point x="58" y="397" type="line"/>
    </contour>
    <contour>
      <point x="58" y="482" type="line"/>
      <point x="564" y="482" type="line"/>
      <point x="564" y="667" type="line"/>
      <point x="58" y="667" type="line"/>
    </contour>
  </outline>
</glyph>
<glyph name="greater" format="1">
  <advance width="837"/>
  <unicode hex="003E"/>
  <outline>
    <contour>
      <point x="95" y="44" type="line"/>
      <point x="777" y="434" type="line"/>
      <point x="777" y="661" type="line"/>
      <point x="95" y="1053" type="line"/>
      <point x="95" y="810" type="line"/>
      <point x="585" y="549" type="line"/>
      <point x="95" y="285" type="line"/>
    </contour>
  </outline>
</glyph>
<glyph name="L" format="1">
  <advance width="1256"/>
  <unicode hex="004C"/>
  <outline>
    <contour>
      <point x="208" y="0" type="line"/>
      <point x="1174" y="0" type="line"/>
      <point x="1174" y="266" type="line"/>
      <point x="547" y="266" type="line"/>
      <point x="547" y="1490" type="line"/>
      <point x="208" y="1490" type="line"/>
    </contour>
    <contour>
      <point x="639" y="0" type="move" name="top"/>
    </contour>
    <contour>
      <point x="639" y="0" type="move" name="bottom"/>
    </contour>
  </outline>
</glyph>
<glyph name="O" format="1">
  <advance width="1688"/>
  <unicode hex="004F"/>
  <outline>
    <contour>
      <point x="855" y="236" type="curve" smooth="yes"/>
      <point x="648" y="236"/>
      <point x="517" y="294"/>
      <point x="517" y="473" type="curve" smooth="yes"/>
      <point x="517" y="1014" type="line" smooth="yes"/>
      <point x="517" y="1192"/>
      <point x="650" y="1252"/>
      <point x="855" y="1252" type="curve" smooth="yes"/>
      <point x="1062" y="1252"/>
      <point x="1171" y="1186"/>
      <point x="1171" y="1014" type="curve" smooth="yes"/>
      <point x="1171" y="473" type="line" smooth="yes"/>
      <point x="1171" y="295"/>
      <point x="1065" y="236"/>
    </contour>
    <contour>
      <point x="855" y="-28" type="curve" smooth="yes"/>
      <point x="1382" y="-28"/>
      <point x="1510" y="237"/>
      <point x="1510" y="524" type="curve" smooth="yes"/>
      <point x="1510" y="957" type="line" smooth="yes"/>
      <point x="1510" y="1252"/>
      <point x="1385" y="1516"/>
      <point x="855" y="1516" type="curve" smooth="yes"/>
      <point x="301" y="1516"/>
      <point x="178" y="1268"/>
      <point x="178" y="973" type="curve" smooth="yes"/>
      <point x="178" y="507" type="line" smooth="yes"/>
      <point x="178" y="220"/>
      <point x="304" y="-28"/>
    </contour>
    <contour>
      <point x="844" y="0" type="move" name="top"/>
    </contour>
  </outline>
</glyph>
<glyph name="P" format="1">
  <advance width="1384"/>
  <unicode hex="0050"/>
  <outline>
    <contour>
      <point x="208" y="0" type="line"/>
      <point x="547" y="0" type="line"/>
      <point x="547" y="500" type="line"/>
      <point x="742" y="500" type="line" smooth="yes"/>
      <point x="1190" y="500"/>
      <point x="1298" y="671"/>
      <point x="1298" y="1011" type="curve" smooth="yes"/>
      <point x="1298" y="1344"/>
      <point x="1146" y="1490"/>
      <point x="783" y="1490" type="curve" smooth="yes"/>
      <point x="208" y="1490" type="line"/>
    </contour>
    <contour>
      <point x="547" y="746" type="line"/>
      <point x="547" y="1252" type="line"/>
      <point x="820" y="1252" type="line" smooth="yes"/>
      <point x="942" y="1252"/>
      <point x="986" y="1157"/>
      <point x="986" y="996" type="curve" smooth="yes"/>
      <point x="986" y="806"/>
      <point x="948" y="746"/>
      <point x="808" y="746" type="curve" smooth="yes"/>
    </contour>
  </outline>
</glyph>
<glyph name="U" format="1">
  <advance width="1588"/>
  <unicode hex="0055"/>
  <outline>
    <contour>
      <point x="803" y="-28" type="curve" smooth="yes"/>
      <point x="1321" y="-28"/>
      <point x="1424" y="196"/>
      <point x="1424" y="483" type="curve" smooth="yes"/>
      <point x="1424" y="1490" type="line"/>
      <point x="1085" y="1490" type="line"/>
      <point x="1085" y="457" type="line" smooth="yes"/>
      <point x="1085" y="297"/>
      <point x="1013" y="236"/>
      <point x="803" y="236" type="curve" smooth="yes"/>
      <point x="596" y="236"/>
      <point x="503" y="293"/>
      <point x="503" y="457" type="curve" smooth="yes"/>
      <point x="503" y="1490" type="line"/>
      <point x="164" y="1490" type="line"/>
      <point x="164" y="466" type="line" smooth="yes"/>
      <point x="164" y="179"/>
      <point x="284" y="-28"/>
    </contour>
    <contour>
      <point x="786" y="0" type="move" name="top"/>
    </contour>
    <contour>
      <point x="1408" y="10" type="move" name="ogonek"/>
    </contour>
  </outline>
</glyph>
<glyph name="W" format="1">
  <advance width="1988"/>
  <unicode hex="0057"/>
  <outline>
    <contour>
      <point x="429" y="0" type="line"/>
      <point x="726" y="0" type="line"/>
      <point x="982" y="975" type="line"/>
      <point x="1267" y="0" type="line"/>
      <point x="1554" y="0" type="line"/>
      <point x="1926" y="1490" type="line"/>
      <point x="1596" y="1490" type="line"/>
      <point x="1389" y="519" type="line"/>
      <point x="1113" y="1490" type="line"/>
      <point x="846" y="1490" type="line"/>
      <point x="618" y="503" type="line"/>
      <point x="395" y="1490" type="line"/>
      <point x="62" y="1490" type="line"/>
    </contour>
    <contour>
      <point x="994" y="0" type="move" name="top"/>
    </contour>
  </outline>
</glyph>
<glyph name="bracketleft" format="1">
  <advance width="854"/>
  <unicode hex="005B"/>
  <outline>
    <contour>
      <point x="200" y="-94" type="line"/>
      <point x="726" y="-94" type="line"/>
      <point x="726" y="78" type="line"/>
      <point x="510" y="78" type="line"/>
      <point x="510" y="1447" type="line"/>
      <point x="726" y="1447" type="line"/>
      <point x="726" y="1619" type="line"/>
      <point x="200" y="1619" type="line"/>
    </contour>
  </outline>
</glyph>
<glyph name="backslash" format="1">
  <advance width="986"/>
  <unicode hex="005C"/>
  <outline>
    <contour>
      <point x="646" y="0" type="line"/>
      <point x="914" y="0" type="line"/>
      <point x="340" y="1520" type="line"/>
      <point x="72" y="1520" type="line"/>
    </contour>
  </outline>
</glyph>
<glyph name="bracketright" format="1">
  <advance width="854"/>
  <unicode hex="005D"/>
  <outline>
    <contour>
      <point x="128" y="-94" type="line"/>
      <point x="654" y="-94" type="line"/>
      <point x="654" y="1619" type="line"/>
      <point x="128" y="1619" type="line"/>
      <point x="128" y="1447" type="line"/>
      <point x="344" y="1447" type="line"/>
      <point x="344" y="78" type="line"/>
      <point x="128" y="78" type="line"/>
    </contour>
  </outline>
</glyph>
<glyph name="b" format="1">
  <advance width="1263"/>
  <unicode hex="0062"/>
  <outline>
    <contour>
      <point x="687" y="-24" type="curve" smooth="yes"/>
      <point x="941" y="-24"/>
      <point x="1111" y="111"/>
      <point x="1111" y="319" type="curve" smooth="yes"/>
      <point x="1111" y="761" type="line" smooth="yes"/>
      <point x="1111" y="932"/>
      <point x="1016" y="1104"/>
      <point x="701" y="1104" type="curve" smooth="yes"/>
      <point x="615" y="1104"/>
      <point x="540" y="1085"/>
      <point x="476" y="1053" type="curve"/>
      <point x="476" y="1520" type="line"/>
      <point x="165" y="1520" type="line"/>
      <point x="165" y="0" type="line"/>
      <point x="376" y="0" type="line"/>
      <point x="403" y="62" type="line"/>
      <point x="479" y="11"/>
      <point x="573" y="-24"/>
    </contour>
    <contour>
      <point x="634" y="186" type="curve" smooth="yes"/>
      <point x="568" y="186"/>
      <point x="511" y="198"/>
      <point x="476" y="228" type="curve"/>
      <point x="476" y="851" type="line"/>
      <point x="476" y="851"/>
      <point x="531" y="894"/>
      <point x="634" y="894" type="curve" smooth="yes"/>
      <point x="747" y="894"/>
      <point x="802" y="860"/>
      <point x="802" y="761" type="curve" smooth="yes"/>
      <point x="802" y="319" type="line" smooth="yes"/>
      <point x="802" y="220"/>
      <point x="737" y="186"/>
    </contour>
  </outline>
</glyph>
<glyph name="c" format="1">
  <advance width="1186"/>
  <unicode hex="0063"/>
  <outline>
    <contour>
      <point x="610" y="-24" type="curve" smooth="yes"/>
      <point x="977" y="-24"/>
      <point x="1055" y="82"/>
      <point x="1055" y="411" type="curve"/>
      <point x="765" y="411" type="line"/>
      <point x="765" y="205"/>
      <point x="742" y="186"/>
      <point x="619" y="186" type="curve" smooth="yes"/>
      <point x="506" y="186"/>
      <point x="462" y="220"/>
      <point x="462" y="319" type="curve" smooth="yes"/>
      <point x="462" y="761" type="line" smooth="yes"/>
      <point x="462" y="860"/>
      <point x="516" y="894"/>
      <point x="619" y="894" type="curve" smooth="yes"/>
      <point x="744" y="894"/>
      <point x="765" y="860"/>
      <point x="765" y="669" type="curve"/>
      <point x="1055" y="689" type="line"/>
      <point x="1055" y="1019"/>
      <point x="911" y="1104"/>
      <point x="607" y="1104" type="curve" smooth="yes"/>
      <point x="318" y="1104"/>
      <point x="152" y="982"/>
      <point x="152" y="761" type="curve" smooth="yes"/>
      <point x="152" y="319" type="line" smooth="yes"/>
      <point x="152" y="137"/>
      <point x="221" y="-24"/>
    </contour>
    <contour>
      <point x="593" y="0" type="move" name="top"/>
    </contour>
    <contour>
      <point x="593" y="0" type="move" name="bottom"/>
    </contour>
  </outline>
</glyph>
<glyph name="d" format="1">
  <advance width="1263"/>
  <unicode hex="0064"/>
  <outline>
    <contour>
      <point x="584" y="-24" type="curve" smooth="yes"/>
      <point x="694" y="-24"/>
      <point x="786" y="10"/>
      <point x="859" y="60" type="curve"/>
      <point x="887" y="0" type="line"/>
      <point x="1098" y="0" type="line"/>
      <point x="1098" y="1520" type="line"/>
      <point x="787" y="1520" type="line"/>
      <point x="787" y="1068" type="line"/>
      <point x="725" y="1090"/>
      <point x="660" y="1104"/>
      <point x="601" y="1104" type="curve" smooth="yes"/>
      <point x="286" y="1104"/>
      <point x="152" y="953"/>
      <point x="152" y="761" type="curve" smooth="yes"/>
      <point x="152" y="319" type="line" smooth="yes"/>
      <point x="152" y="98"/>
      <point x="299" y="-24"/>
    </contour>
    <contour>
      <point x="625" y="186" type="curve" smooth="yes"/>
      <point x="513" y="186"/>
      <point x="462" y="220"/>
      <point x="462" y="319" type="curve" smooth="yes"/>
      <point x="462" y="761" type="line" smooth="yes"/>
      <point x="462" y="860"/>
      <point x="520" y="894"/>
      <point x="633" y="894" type="curve" smooth="yes"/>
      <point x="704" y="894"/>
      <point x="760" y="873"/>
      <point x="787" y="861" type="curve"/>
      <point x="787" y="220" type="line"/>
      <point x="745" y="196"/>
      <point x="686" y="186"/>
    </contour>
    <contour>
      <point x="632" y="0" type="move" name="center"/>
    </contour>
  </outline>
</glyph>
<glyph name="g" format="1">
  <advance width="1281"/>
  <unicode hex="0067"/>
  <outline>
    <contour>
      <point x="624" y="-408" type="curve" smooth="yes"/>
      <point x="998" y="-408"/>
      <point x="1116" y="-208"/>
      <point x="1116" y="-10" type="curve" smooth="yes"/>
      <point x="1116" y="1081" type="line"/>
      <point x="905" y="1081" type="line"/>
      <point x="872" y="1006" type="line"/>
      <point x="789" y="1064"/>
      <point x="686" y="1104"/>
      <point x="563" y="1104" type="curve" smooth="yes"/>
      <point x="248" y="1104"/>
      <point x="152" y="932"/>
      <point x="152" y="761" type="curve" smooth="yes"/>
      <point x="152" y="361" type="line" smooth="yes"/>
      <point x="152" y="153"/>
      <point x="323" y="28"/>
      <point x="578" y="28" type="curve" smooth="yes"/>
      <point x="664" y="28"/>
      <point x="739" y="46"/>
      <point x="805" y="76" type="curve"/>
      <point x="805" y="-11" type="line" smooth="yes"/>
      <point x="805" y="-119"/>
      <point x="741" y="-185"/>
      <point x="582" y="-185" type="curve" smooth="yes"/>
      <point x="510" y="-185"/>
      <point x="417" y="-171"/>
      <point x="301" y="-141" type="curve"/>
      <point x="239" y="-345" type="line"/>
      <point x="312" y="-384"/>
      <point x="496" y="-408"/>
    </contour>
    <contour>
      <point x="630" y="228" type="curve" smooth="yes"/>
      <point x="527" y="228"/>
      <point x="462" y="262"/>
      <point x="462" y="361" type="curve" smooth="yes"/>
      <point x="462" y="761" type="line" smooth="yes"/>
      <point x="462" y="860"/>
      <point x="517" y="894"/>
      <point x="630" y="894" type="curve" smooth="yes"/>
      <point x="733" y="894"/>
      <point x="805" y="851"/>
      <point x="805" y="851" type="curve"/>
      <point x="805" y="262" type="line"/>
      <point x="765" y="234"/>
      <point x="700" y="228"/>
    </contour>
    <contour>
      <point x="641" y="0" type="move" name="top"/>
    </contour>
  </outline>
</glyph>
<glyph name="o" format="1">
  <advance width="1268"/>
  <unicode hex="006F"/>
  <outline>
    <contour>
      <point x="634" y="186" type="curve" smooth="yes"/>
      <point x="521" y="186"/>
      <point x="466" y="220"/>
      <point x="466" y="319" type="curve" smooth="yes"/>
      <point x="466" y="761" type="line" smooth="yes"/>
      <point x="466" y="860"/>
      <point x="531" y="894"/>
      <point x="634" y="894" type="curve" smooth="yes"/>
      <point x="747" y="894"/>
      <point x="802" y="860"/>
      <point x="802" y="761" type="curve" smooth="yes"/>
      <point x="802" y="319" type="line" smooth="yes"/>
      <point x="802" y="220"/>
      <point x="737" y="186"/>
    </contour>
    <contour>
      <point x="634" y="-24" type="curve" smooth="yes"/>
      <point x="998" y="-24"/>
      <point x="1112" y="109"/>
      <point x="1112" y="330" type="curve" smooth="yes"/>
      <point x="1112" y="750" type="line" smooth="yes"/>
      <point x="1112" y="980"/>
      <point x="918" y="1104"/>
      <point x="634" y="1104" type="curve" smooth="yes"/>
      <point x="350" y="1104"/>
      <point x="156" y="980"/>
      <point x="156" y="750" type="curve" smooth="yes"/>
      <point x="156" y="330" type="line" smooth="yes"/>
      <point x="156" y="108"/>
      <point x="286" y="-24"/>
    </contour>
    <contour>
      <point x="634" y="0" type="move" name="top"/>
    </contour>
  </outline>
</glyph>
<glyph name="r" format="1">
  <advance width="932"/>
  <unicode hex="0072"/>
  <outline>
    <contour>
      <point x="178" y="0" type="line"/>
      <point x="488" y="0" type="line"/>
      <point x="488" y="740" type="line"/>
      <point x="518" y="826"/>
      <point x="747" y="832"/>
      <point x="866" y="842" type="curve"/>
      <point x="872" y="1097" type="line"/>
      <point x="782" y="1111"/>
      <point x="539" y="1044"/>
      <point x="488" y="962" type="curve"/>
      <point x="488" y="1080" type="line"/>
      <point x="178" y="1080" type="line"/>
    </contour>
    <contour>
      <point x="466" y="0" type="move" name="top"/>
    </contour>
    <contour>
      <point x="466" y="0" type="move" name="bottom"/>
    </contour>
  </outline>
</glyph>
<glyph name="s" format="1">
  <advance width="1053"/>
  <unicode hex="0073"/>
  <outline>
    <contour>
      <point x="560" y="-24" type="curve" smooth="yes"/>
      <point x="817" y="-24"/>
      <point x="958" y="124"/>
      <point x="958" y="312" type="curve" smooth="yes"/>
      <point x="958" y="481"/>
      <point x="886" y="544"/>
      <point x="715" y="619" type="curve"/>
      <point x="513" y="713" type="line" smooth="yes"/>
      <point x="470" y="732"/>
      <point x="434" y="758"/>
      <point x="434" y="804" type="curve" smooth="yes"/>
      <point x="434" y="863"/>
      <point x="468" y="894"/>
      <point x="558" y="894" type="curve" smooth="yes"/>
      <point x="664" y="894"/>
      <point x="786" y="838"/>
      <point x="844" y="792" type="curve"/>
      <point x="945" y="957" type="line"/>
      <point x="880" y="1021"/>
      <point x="735" y="1104"/>
      <point x="538" y="1104" type="curve" smooth="yes"/>
      <point x="325" y="1104"/>
      <point x="137" y="1012"/>
      <point x="137" y="783" type="curve" smooth="yes"/>
      <point x="137" y="644"/>
      <point x="197" y="563"/>
      <point x="356" y="494" type="curve"/>
      <point x="569" y="395" type="line"/>
      <point x="638" y="365"/>
      <point x="667" y="327"/>
      <point x="667" y="287" type="curve" smooth="yes"/>
      <point x="667" y="240"/>
      <point x="629" y="186"/>
      <point x="558" y="186" type="curve" smooth="yes"/>
      <point x="470" y="186"/>
      <point x="354" y="221"/>
      <point x="228" y="314" type="curve"/>
      <point x="114" y="131" type="line"/>
      <point x="233" y="29"/>
      <point x="389" y="-24"/>
    </contour>
    <contour>
      <point x="527" y="0" type="move" name="top"/>
    </contour>
    <contour>
      <point x="527" y="0" type="move" name="bottom"/>
    </contour>
  </outline>
</glyph>
<glyph name="w" format="1">
  <advance width="1727"/>
  <unicode hex="0077"/>
  <outline>
    <contour>
      <point x="357" y="0" type="line"/>
      <point x="639" y="0" type="line"/>
      <point x="872" y="692" type="line"/>
      <point x="1093" y="0" type="line"/>
      <point x="1387" y="0" type="line"/>
      <point x="1661" y="1080" type="line"/>
      <point x="1374" y="1080" type="line"/>
      <point x="1206" y="351" type="line"/>
      <point x="983" y="1080" type="line"/>
      <point x="756" y="1080" type="line"/>
      <point x="538" y="364" type="line"/>
      <point x="357" y="1080" type="line"/>
      <point x="66" y="1080" type="line"/>
    </contour>
    <contour>
      <point x="864" y="0" type="move" name="top"/>
    </contour>
  </outline>
</glyph>
<glyph name="x" format="1">
  <advance width="1155"/>
  <unicode hex="0078"/>
  <outline>
    <contour>
      <point x="53" y="0" type="line"/>
      <point x="375" y="0" type="line"/>
      <point x="588" y="316" type="line"/>
      <point x="810" y="0" type="line"/>
      <point x="1103" y="0" type="line"/>
      <point x="737" y="536" type="line"/>
      <point x="1103" y="1080" type="line"/>
      <point x="800" y="1080" type="line"/>
      <point x="581" y="764" type="line"/>
      <point x="365" y="1080" type="line"/>
      <point x="52" y="1080" type="line"/>
      <point x="429" y="543" type="line"/>
    </contour>
  </outline>
</glyph>
<glyph name="braceleft" format="1">
  <advance width="1024"/>
  <unicode hex="007B"/>
  <outline>
    <contour>
      <point x="837" y="-93" type="curve"/>
      <point x="837" y="-93"/>
      <point x="838" y="91"/>
      <point x="837" y="91" type="curve" smooth="yes"/>
      <point x="717" y="91"/>
      <point x="694" y="142"/>
      <point x="694" y="247" type="curve" smooth="yes"/>
      <point x="694" y="400" type="line" smooth="yes"/>
      <point x="694" y="613"/>
      <point x="646" y="709"/>
      <point x="509" y="753" type="curve"/>
      <point x="638" y="789"/>
      <point x="693" y="925"/>
      <point x="693" y="1114" type="curve" smooth="yes"/>
      <point x="693" y="1287" type="line" smooth="yes"/>
      <point x="693" y="1374"/>
      <point x="714" y="1394"/>
      <point x="837" y="1394" type="curve" smooth="yes"/>
      <point x="838" y="1394"/>
      <point x="837" y="1578"/>
      <point x="837" y="1578" type="curve"/>
      <point x="536" y="1578"/>
      <point x="376" y="1594"/>
      <point x="376" y="1188" type="curve" smooth="yes"/>
      <point x="376" y="1049" type="line" smooth="yes"/>
      <point x="376" y="946"/>
      <point x="314" y="881"/>
      <point x="203" y="881" type="curve"/>
      <point x="203" y="604" type="line"/>
      <point x="312" y="604"/>
      <point x="376" y="563"/>
      <point x="376" y="460" type="curve" smooth="yes"/>
      <point x="376" y="344" type="line" smooth="yes"/>
      <point x="376" y="-1"/>
      <point x="511" y="-93"/>
    </contour>
  </outline>
</glyph>
<glyph name="currency" format="1">
  <advance width="1126"/>
  <unicode hex="00A4"/>
  <outline>
    <contour>
      <point x="554" y="413" type="curve" smooth="yes"/>
      <point x="673" y="413"/>
      <point x="761" y="448"/>
      <point x="821" y="501" type="curve"/>
      <point x="959" y="408" type="line"/>
      <point x="1014" y="485" type="line"/>
      <point x="881" y="574" type="line"/>
      <point x="912" y="626"/>
      <point x="926" y="686"/>
      <point x="926" y="746" type="curve" smooth="yes"/>
      <point x="926" y="800"/>
      <point x="914" y="854"/>
      <point x="890" y="902" type="curve"/>
      <point x="1015" y="984" type="line"/>
      <point x="965" y="1064" type="line"/>
      <point x="835" y="979" type="line"/>
      <point x="774" y="1040"/>
      <point x="682" y="1080"/>
      <point x="554" y="1080" type="curve" smooth="yes"/>
      <point x="427" y="1080"/>
      <point x="335" y="1042"/>
      <point x="274" y="984" type="curve"/>
      <point x="150" y="1069" type="line"/>
      <point x="94" y="992" type="line"/>
      <point x="217" y="909" type="line"/>
      <point x="190" y="859"/>
      <point x="177" y="803"/>
      <point x="177" y="746" type="curve" smooth="yes"/>
      <point x="177" y="687"/>
      <point x="191" y="628"/>
      <point x="221" y="577" type="curve"/>
      <point x="93" y="494" type="line"/>
      <point x="143" y="413" type="line"/>
      <point x="281" y="503" type="line"/>
      <point x="342" y="448"/>
      <point x="431" y="413"/>
    </contour>
    <contour>
      <point x="554" y="579" type="curve" smooth="yes"/>
      <point x="413" y="579"/>
      <point x="364" y="662"/>
      <point x="364" y="746" type="curve" smooth="yes"/>
      <point x="364" y="829"/>
      <point x="412" y="914"/>
      <point x="554" y="914" type="curve" smooth="yes"/>
      <point x="691" y="914"/>
      <point x="739" y="829"/>
      <point x="739" y="746" type="curve" smooth="yes"/>
      <point x="739" y="662"/>
      <point x="690" y="579"/>
    </contour>
  </outline>
</glyph>
<glyph name="yen" format="1">
  <advance width="1316"/>
  <unicode hex="00A5"/>
  <outline>
    <contour>
      <point x="257" y="189" type="line"/>
      <point x="1056" y="189" type="line"/>
      <point x="1056" y="354" type="line"/>
      <point x="257" y="354" type="line"/>
    </contour>
    <contour>
      <point x="257" y="468" type="line"/>
      <point x="1056" y="468" type="line"/>
      <point x="1056" y="633" type="line"/>
      <point x="257" y="633" type="line"/>
    </contour>
    <component base="Y"/>
  </outline>
</glyph>
<glyph name="section" format="1">
  <advance width="1053"/>
  <unicode hex="00A7"/>
  <outline>
    <contour>
      <point x="560" y="-24" type="curve" smooth="yes"/>
      <point x="817" y="-24"/>
      <point x="958" y="124"/>
      <point x="958" y="312" type="curve" smooth="yes"/>
      <point x="958" y="414"/>
      <point x="928" y="474"/>
      <point x="867" y="521" type="curve"/>
      <point x="927" y="569"/>
      <point x="958" y="627"/>
      <point x="958" y="716" type="curve" smooth="yes"/>
      <point x="958" y="885"/>
      <point x="886" y="948"/>
      <point x="715" y="1023" type="curve"/>
      <point x="513" y="1117" type="line" smooth="yes"/>
      <point x="470" y="1136"/>
      <point x="434" y="1162"/>
      <point x="434" y="1208" type="curve" smooth="yes"/>
      <point x="434" y="1267"/>
      <point x="468" y="1298"/>
      <point x="558" y="1298" type="curve" smooth="yes"/>
      <point x="664" y="1298"/>
      <point x="786" y="1242"/>
      <point x="844" y="1196" type="curve"/>
      <point x="945" y="1361" type="line"/>
      <point x="880" y="1425"/>
      <point x="735" y="1508"/>
      <point x="538" y="1508" type="curve" smooth="yes"/>
      <point x="325" y="1508"/>
      <point x="137" y="1416"/>
      <point x="137" y="1187" type="curve" smooth="yes"/>
      <point x="137" y="1097"/>
      <point x="167" y="1035"/>
      <point x="231" y="984" type="curve"/>
      <point x="173" y="945"/>
      <point x="137" y="883"/>
      <point x="137" y="783" type="curve" smooth="yes"/>
      <point x="137" y="644"/>
      <point x="197" y="563"/>
      <point x="356" y="494" type="curve"/>
      <point x="569" y="395" type="line"/>
      <point x="638" y="365"/>
      <point x="667" y="327"/>
      <point x="667" y="287" type="curve" smooth="yes"/>
      <point x="667" y="240"/>
      <point x="629" y="186"/>
      <point x="558" y="186" type="curve" smooth="yes"/>
      <point x="470" y="186"/>
      <point x="354" y="221"/>
      <point x="228" y="314" type="curve"/>
      <point x="114" y="131" type="line"/>
      <point x="233" y="29"/>
      <point x="389" y="-24"/>
    </contour>
    <contour>
      <point x="664" y="628" type="curve"/>
      <point x="503" y="703" type="line" smooth="yes"/>
      <point x="444" y="731"/>
      <point x="414" y="758"/>
      <point x="414" y="804" type="curve" smooth="yes"/>
      <point x="414" y="834"/>
      <point x="423" y="857"/>
      <point x="443" y="872" type="curve"/>
      <point x="579" y="809" type="line" smooth="yes"/>
      <point x="663" y="770"/>
      <point x="687" y="731"/>
      <point x="687" y="691" type="curve" smooth="yes"/>
      <point x="687" y="670"/>
      <point x="679" y="647"/>
    </contour>
  </outline>
</glyph>
<glyph name="dieresis" format="1">
  <advance width="942"/>
  <unicode hex="00A8"/>
  <outline>
    <contour>
      <point x="96" y="1235" type="line"/>
      <point x="385" y="1235" type="line"/>
      <point x="385" y="1490" type="line"/>
      <point x="96" y="1490" type="line"/>
    </contour>
    <contour>
      <point x="608" y="1235" type="line"/>
      <point x="898" y="1235" type="line"/>
      <point x="898" y="1490" type="line"/>
      <point x="608" y="1490" type="line"/>
    </contour>
    <contour>
      <point x="497" y="0" type="move" name="_top"/>
    </contour>
  </outline>
</glyph>
<glyph name="plusminus" format="1">
  <advance width="740"/>
  <unicode hex="00B1"/>
  <outline>
    <contour>
      <point x="273" y="322" type="line"/>
      <point x="458" y="322" type="line"/>
      <point x="458" y="482" type="line"/>
      <point x="618" y="482" type="line"/>
      <point x="618" y="667" type="line"/>
      <point x="458" y="667" type="line"/>
      <point x="458" y="828" type="line"/>
      <point x="273" y="828" type="line"/>
      <point x="273" y="667" type="line"/>
      <point x="113" y="667" type="line"/>
      <point x="113" y="482" type="line"/>
      <point x="273" y="482" type="line"/>
    </contour>
    <contour>
      <point x="113" y="0" type="line"/>
      <point x="618" y="0" type="line"/>
      <point x="618" y="185" type="line"/>
      <point x="113" y="185" type="line"/>
    </contour>
  </outline>
</glyph>
<glyph name="acute" format="1">
  <advance width="527"/>
  <unicode hex="00B4"/>
  <outline>
    <contour>
      <point x="94" y="1153" type="line"/>
      <point x="262" y="1153" type="line"/>
      <point x="492" y="1518" type="line"/>
      <point x="206" y="1518" type="line"/>
    </contour>
    <contour>
      <point x="293" y="0" type="move" name="_top"/>
    </contour>
  </outline>
</glyph>
<glyph name="uni00B9" format="1">
  <advance width="465"/>
  <unicode hex="00B9"/>
  <outline>
    <contour>
      <point x="164" y="536" type="line"/>
      <point x="348" y="536" type="line"/>
      <point x="348" y="1310" type="line"/>
      <point x="277" y="1310" type="line"/>
      <point x="218" y="1238"/>
      <point x="140" y="1186"/>
      <point x="57" y="1145" type="curve"/>
      <point x="57" y="1019" type="line"/>
      <point x="164" y="1019" type="line"/>
    </contour>
  </outline>
</glyph>
<glyph name="AE" format="1">
  <advance width="1925"/>
  <unicode hex="00C6"/>
  <outline>
    <contour>
      <point x="433" y="0" type="line"/>
      <point x="514" y="280" type="line"/>
      <point x="881" y="280" type="line"/>
      <point x="881" y="0" type="line"/>
      <point x="1811" y="0" type="line"/>
      <point x="1811" y="261" type="line"/>
      <point x="1220" y="261" type="line"/>
      <point x="1220" y="636" type="line"/>
      <point x="1726" y="636" type="line"/>
      <point x="1726" y="877" type="line"/>
      <point x="1220" y="877" type="line"/>
      <point x="1220" y="1228" type="line"/>
      <point x="1800" y="1228" type="line"/>
      <point x="1800" y="1490" type="line"/>
      <point x="540" y="1490" type="line"/>
      <point x="76" y="0" type="line"/>
    </contour>
    <contour>
      <point x="578" y="503" type="line"/>
      <point x="792" y="1228" type="line"/>
      <point x="881" y="1228" type="line"/>
      <point x="881" y="503" type="line"/>
    </contour>
    <contour>
      <point x="963" y="0" type="move" name="top"/>
    </contour>
  </outline>
</glyph>
<glyph name="ae" format="1">
  <advance width="1814"/>
  <unicode hex="00E6"/>
  <outline>
    <contour>
      <point x="435" y="-24" type="curve" smooth="yes"/>
      <point x="641" y="-24"/>
      <point x="747" y="23"/>
      <point x="870" y="117" type="curve"/>
      <point x="928" y="18"/>
      <point x="1062" y="-24"/>
      <point x="1220" y="-24" type="curve" smooth="yes"/>
      <point x="1510" y="-24"/>
      <point x="1668" y="33"/>
      <point x="1668" y="369" type="curve"/>
      <point x="1378" y="369" type="line"/>
      <point x="1378" y="206"/>
      <point x="1330" y="186"/>
      <point x="1227" y="186" type="curve" smooth="yes"/>
      <point x="1128" y="186"/>
      <point x="1065" y="211"/>
      <point x="1065" y="318" type="curve" smooth="yes"/>
      <point x="1065" y="515" type="line"/>
      <point x="1668" y="515" type="line"/>
      <point x="1668" y="740" type="line" smooth="yes"/>
      <point x="1668" y="962"/>
      <point x="1566" y="1104"/>
      <point x="1218" y="1104" type="curve" smooth="yes"/>
      <point x="1094" y="1104"/>
      <point x="986" y="1063"/>
      <point x="910" y="980" type="curve"/>
      <point x="859" y="1065"/>
      <point x="734" y="1104"/>
      <point x="601" y="1104" type="curve" smooth="yes"/>
      <point x="299" y="1104"/>
      <point x="168" y="952"/>
      <point x="168" y="745" type="curve" smooth="yes"/>
      <point x="168" y="720" type="line"/>
      <point x="456" y="720" type="line"/>
      <point x="456" y="759" type="line" smooth="yes"/>
      <point x="456" y="842"/>
      <point x="492" y="894"/>
      <point x="595" y="894" type="curve" smooth="yes"/>
      <point x="695" y="894"/>
      <point x="755" y="862"/>
      <point x="755" y="777" type="curve" smooth="yes"/>
      <point x="755" y="629"/>
      <point x="655" y="639"/>
      <point x="453" y="577" type="curve" smooth="yes"/>
      <point x="164" y="489"/>
      <point x="132" y="419"/>
      <point x="139" y="262" type="curve" smooth="yes"/>
      <point x="147" y="77"/>
      <point x="269" y="-24"/>
    </contour>
    <contour>
      <point x="559" y="176" type="curve" smooth="yes"/>
      <point x="474" y="176"/>
      <point x="436" y="226"/>
      <point x="436" y="301" type="curve" smooth="yes"/>
      <point x="436" y="344"/>
      <point x="454" y="404"/>
      <point x="545" y="430" type="curve" smooth="yes"/>
      <point x="616" y="450"/>
      <point x="719" y="478"/>
      <point x="755" y="508" type="curve"/>
      <point x="755" y="253" type="line"/>
      <point x="696" y="187"/>
      <point x="604" y="176"/>
    </contour>
    <contour>
      <point x="1065" y="664" type="line"/>
      <point x="1065" y="760" type="line" smooth="yes"/>
      <point x="1065" y="866"/>
      <point x="1136" y="894"/>
      <point x="1227" y="894" type="curve" smooth="yes"/>
      <point x="1321" y="894"/>
      <point x="1378" y="875"/>
      <point x="1378" y="760" type="curve" smooth="yes"/>
      <point x="1378" y="664" type="line"/>
    </contour>
    <contour>
      <point x="706.0" y="0.0" type="move" name="top"/>
    </contour>
  </outline>
</glyph>
<glyph name="oslash" format="1">
  <advance width="1260"/>
  <unicode hex="00F8"/>
  <outline>
    <contour>
      <point x="397" y="-209" type="line"/>
      <point x="922" y="1278" type="line"/>
      <point x="859" y="1294" type="line"/>
      <point x="334" y="-193" type="line"/>
    </contour>
    <component base="o"/>
    <contour>
      <point x="630" y="0" type="move" name="top"/>
    </contour>
  </outline>
</glyph>
<glyph name="Hbar" format="1">
  <advance width="1702"/>
  <unicode hex="0126"/>
  <outline>
    <contour>
      <point x="87.0" y="1105.0" type="line"/>
      <point x="1616" y="1105" type="line"/>
      <point x="1616" y="1200" type="line"/>
      <point x="87.0" y="1200.0" type="line"/>
    </contour>
    <component base="H"/>
  </outline>
</glyph>
<glyph name="dotlessi" format="1">
  <advance width="440"/>
  <unicode hex="0131"/>
  <outline>
    <contour>
      <point x="103" y="0" type="line"/>
      <point x="381" y="0" type="line"/>
      <point x="381" y="1080" type="line"/>
      <point x="103" y="1080" type="line"/>
    </contour>
    <contour>
      <point x="220" y="0" type="move" name="top"/>
    </contour>
    <contour>
      <point x="396" y="10" type="move" name="ogonek"/>
    </contour>
  </outline>
</glyph>
<glyph name="hungarumlaut" format="1">
  <advance width="1024"/>
  <unicode hex="02DD"/>
  <outline>
    <contour>
      <point x="71" y="1080" type="line"/>
      <point x="250" y="1080" type="line"/>
      <point x="503" y="1491" type="line"/>
      <point x="184" y="1491" type="line"/>
    </contour>
    <contour>
      <point x="521" y="1080" type="line"/>
      <point x="700" y="1080" type="line"/>
      <point x="953" y="1491" type="line"/>
      <point x="634" y="1491" type="line"/>
    </contour>
    <contour>
      <point x="512" y="0" type="move" name="_top"/>
    </contour>
  </outline>
</glyph>
<glyph name="emdash" format="1">
  <advance width="899"/>
  <unicode hex="2014"/>
  <outline>
    <contour>
      <point x="3" y="375" type="line"/>
      <point x="895" y="375" type="line"/>
      <point x="895" y="559" type="line"/>
      <point x="3" y="559" type="line"/>
    </contour>
  </outline>
</glyph>
<glyph name="uni2074" format="1">
  <advance width="737"/>
  <unicode hex="2074"/>
  <outline>
    <contour>
      <point x="379" y="482" type="line"/>
      <point x="562" y="482" type="line"/>
      <point x="562" y="697" type="line"/>
      <point x="670" y="697" type="line"/>
      <point x="670" y="828" type="line"/>
      <point x="562" y="828" type="line"/>
      <point x="562" y="1310" type="line"/>
      <point x="401" y="1310" type="line"/>
      <point x="59" y="819" type="line"/>
      <point x="59" y="697" type="line"/>
      <point x="379" y="697" type="line"/>
    </contour>
    <contour>
      <point x="250" y="828" type="line"/>
      <point x="379" y="980" type="line"/>
      <point x="379" y="828" type="line"/>
    </contour>
  </outline>
</glyph>
